                                                                        S      1
,,24HButterflySwitchStrapClip,24HButterflySwitchStrapClip,7Hunknown,7HunG      1
known,32,38,7,99,15,,1.,2,2HMM,1,0.08,15H20160307.201913,0.01,10000.,7HuG      2
nknown,7Hunknown,11,0,;                                                 G      3
     186       1                                                00000000D      1
     186            -191       1       0                               0D      2
     514       2                                                00010000D      3
     514                       2       1                               0D      4
     510       4                                                00010000D      5
     510            -191       1       1                               0D      6
     510       5                                                00010000D      7
     510            -191       1       1                               0D      8
     510       6                                                00010000D      9
     510            -191       1       1                               0D     10
     510       7                                                00010000D     11
     510            -191       1       1                               0D     12
     510       8                                                00010000D     13
     510            -191       1       1                               0D     14
     510       9                                                00010000D     15
     510            -191       1       1                               0D     16
     510      10                                                00010000D     17
     510            -191       1       1                               0D     18
     510      11                                                00010000D     19
     510            -191       1       1                               0D     20
     510      12                                                00010000D     21
     510            -191       1       1                               0D     22
     510      13                                                00010000D     23
     510            -191       1       1                               0D     24
     510      14                                                00010000D     25
     510            -191       1       1                               0D     26
     510      15                                                00010000D     27
     510            -191       1       1                               0D     28
     510      16                                                00010000D     29
     510            -191       1       1                               0D     30
     510      17                                                00010000D     31
     510            -191       1       1                               0D     32
     510      18                                                00010000D     33
     510            -191       1       1                               0D     34
     510      19                                                00010000D     35
     510            -191       1       1                               0D     36
     508      20                                                00010000D     37
     508                       1       1                               0D     38
     508      21                                                00010000D     39
     508                       1       1                               0D     40
     508      22                                                00010000D     41
     508                       1       1                               0D     42
     508      23                                                00010000D     43
     508                       1       1                               0D     44
     508      24                                                00010000D     45
     508                       1       1                               0D     46
     508      25                                                00010000D     47
     508                       1       1                               0D     48
     508      26                                                00010000D     49
     508                       1       1                               0D     50
     508      27                                                00010000D     51
     508                       2       1                               0D     52
     508      29                                                00010000D     53
     508                       1       1                               0D     54
     508      30                                                00010000D     55
     508                       1       1                               0D     56
     508      31                                                00010000D     57
     508                       1       1                               0D     58
     508      32                                                00010000D     59
     508                       1       1                               0D     60
     508      33                                                00010000D     61
     508                       1       1                               0D     62
     508      34                                                00010000D     63
     508                       1       1                               0D     64
     508      35                                                00010000D     65
     508                       1       1                               0D     66
     508      36                                                00010000D     67
     508                       1       1                               0D     68
     508      37                                                00010000D     69
     508                       2       1                               0D     70
     508      39                                                00010000D     71
     508                       1       1                               0D     72
     508      40                                                00010000D     73
     508                       1       1                               0D     74
     508      41                                                00010000D     75
     508                       1       1                               0D     76
     508      42                                                00010000D     77
     508                       1       1                               0D     78
     508      43                                                00010000D     79
     508                       1       1                               0D     80
     126      44                                                00010000D     81
     126       0               2       0                               0D     82
     126      46                                                00010000D     83
     126       0               2       0                               0D     84
     126      48                                                00010000D     85
     126       0               2       0                               0D     86
     126      50                                                00010000D     87
     126       0               2       0                               0D     88
     126      52                                                00010000D     89
     126       0               2       0                               0D     90
     126      54                                                00010000D     91
     126       0               2       0                               0D     92
     126      56                                                00010000D     93
     126       0               2       0                               0D     94
     126      58                                                00010000D     95
     126       0               2       0                               0D     96
     126      60                                                00010000D     97
     126       0               3       0                               0D     98
     126      63                                                00010000D     99
     126       0               2       0                               0D    100
     126      65                                                00010000D    101
     126       0               2       0                               0D    102
     126      67                                                00010000D    103
     126       0               2       0                               0D    104
     126      69                                                00010000D    105
     126       0               2       0                               0D    106
     126      71                                                00010000D    107
     126       0               8       0                               0D    108
     126      79                                                00010000D    109
     126       0               2       0                               0D    110
     126      81                                                00010000D    111
     126       0               5       0                               0D    112
     126      86                                                00010000D    113
     126       0               2       0                               0D    114
     126      88                                                00010000D    115
     126       0               8       0                               0D    116
     126      96                                                00010000D    117
     126       0               2       0                               0D    118
     126      98                                                00010000D    119
     126       0               2       0                               0D    120
     126     100                                                00010000D    121
     126       0               2       0                               0D    122
     126     102                                                00010000D    123
     126       0               8       0                               0D    124
     126     110                                                00010000D    125
     126       0               2       0                               0D    126
     126     112                                                00010000D    127
     126       0               8       0                               0D    128
     126     120                                                00010000D    129
     126       0               8       0                               0D    130
     126     128                                                00010000D    131
     126       0               8       0                               0D    132
     126     136                                                00010000D    133
     126       0               2       0                               0D    134
     126     138                                                00010000D    135
     126       0               8       0                               0D    136
     126     146                                                00010000D    137
     126       0               8       0                               0D    138
     126     154                                                00010000D    139
     126       0               2       0                               0D    140
     126     156                                                00010000D    141
     126       0               2       0                               0D    142
     126     158                                                00010000D    143
     126       0               2       0                               0D    144
     126     160                                                00010000D    145
     126       0               2       0                               0D    146
     126     162                                                00010000D    147
     126       0               2       0                               0D    148
     126     164                                                00010000D    149
     126       0               2       0                               0D    150
     126     166                                                00010000D    151
     126       0               5       0                               0D    152
     128     171                                                00010000D    153
     128       0    -191       4       0                               0D    154
     128     175                                                00010000D    155
     128       0    -191       3       0                               0D    156
     128     178                                                00010000D    157
     128       0    -191       4       0                               0D    158
     128     182                                                00010000D    159
     128       0    -191       4       0                               0D    160
     128     186                                                00010000D    161
     128       0    -191       4       0                               0D    162
     128     190                                                00010000D    163
     128       0    -191       4       0                               0D    164
     128     194                                                00010000D    165
     128       0    -191      13       0                               0D    166
     128     207                                                00010000D    167
     128       0    -191       3       0                               0D    168
     128     210                                                00010000D    169
     128       0    -191      13       0                               0D    170
     128     223                                                00010000D    171
     128       0    -191       3       0                               0D    172
     128     226                                                00010000D    173
     128       0    -191      12       0                               0D    174
     128     238                                                00010000D    175
     128       0    -191      12       0                               0D    176
     128     250                                                00010000D    177
     128       0    -191       3       0                               0D    178
     128     253                                                00010000D    179
     128       0    -191       3       0                               0D    180
     128     256                                                00010000D    181
     128       0    -191       8       0                               0D    182
     128     264                                                00010000D    183
     128       0    -191       4       0                               0D    184
     502     268                                                00010000D    185
     502                       6       1                               0D    186
     504     274                                                00010001D    187
     504                      10       1                               0D    188
     406     284                                                00000000D    189
     406                       1      15                               0D    190
     314     285                                                00000200D    191
     314                       2       0                               0D    192
186,3,1,0,0,1,189;                                                     1P      1
514,16,5,1,7,1,9,1,11,1,13,1,15,1,17,1,19,1,21,1,23,1,25,1,27,1,       3P      2
29,1,31,1,33,1,35,1;                                                   3P      3
510,153,1,1,37;                                                        5P      4
510,155,1,1,39;                                                        7P      5
510,157,1,1,41;                                                        9P      6
510,159,2,1,43,45;                                                    11P      7
510,161,2,1,47,49;                                                    13P      8
510,163,1,1,51;                                                       15P      9
510,165,1,1,53;                                                       17P     10
510,167,2,1,55,57;                                                    19P     11
510,169,1,1,59;                                                       21P     12
510,171,2,1,61,63;                                                    23P     13
510,173,1,1,65;                                                       25P     14
510,175,1,1,67;                                                       27P     15
510,177,1,1,69;                                                       29P     16
510,179,1,1,71;                                                       31P     17
510,181,1,1,73;                                                       33P     18
510,183,3,1,75,77,79;                                                 35P     19
508,4,0,187,1,0,0,0,187,2,0,0,0,187,3,1,0,0,187,4,0,0;                37P     20
508,4,0,187,5,0,0,0,187,6,0,0,0,187,7,1,0,0,187,8,0,0;                39P     21
508,4,0,187,9,0,0,0,187,3,0,0,0,187,10,0,0,0,187,7,0,0;               41P     22
508,4,0,187,5,1,0,0,187,11,0,0,0,187,12,0,0,0,187,13,0,0;             43P     23
508,1,0,187,14,1,0;                                                   45P     24
508,4,0,187,1,1,0,0,187,15,0,0,0,187,16,0,0,0,187,17,0,0;             47P     25
508,1,0,187,18,1,0;                                                   49P     26
508,8,0,187,4,1,0,0,187,9,1,0,0,187,6,1,0,0,187,13,1,0,0,187,19,      51P     27
1,0,0,187,20,0,0,0,187,21,0,0,0,187,15,1,0;                           51P     28
508,4,0,187,22,0,0,0,187,23,1,0,0,187,24,1,0,0,187,23,0,0;            53P     29
508,1,0,187,24,0,0;                                                   55P     30
508,1,0,187,25,0,0;                                                   57P     31
508,4,0,187,26,0,0,0,187,27,1,0,0,187,28,1,0,0,187,27,0,0;            59P     32
508,1,0,187,28,0,0;                                                   61P     33
508,1,0,187,29,0,0;                                                   63P     34
508,4,0,187,29,1,0,0,187,30,1,0,0,187,14,0,0,0,187,30,0,0;            65P     35
508,4,0,187,25,1,0,0,187,31,1,0,0,187,18,0,0,0,187,31,0,0;            67P     36
508,8,0,187,2,1,0,0,187,17,1,0,0,187,32,1,0,0,187,33,0,0,0,187,       69P     37
34,0,0,0,187,11,1,0,0,187,8,1,0,0,187,10,1,0;                         69P     38
508,4,0,187,12,1,0,0,187,34,1,0,0,187,35,0,0,0,187,19,0,0;            71P     39
508,4,0,187,16,1,0,0,187,21,1,0,0,187,36,0,0,0,187,32,0,0;            73P     40
508,4,0,187,36,1,0,0,187,20,1,0,0,187,35,1,0,0,187,33,1,0;            75P     41
508,1,0,187,22,1,0;                                                   77P     42
508,1,0,187,26,1,0;                                                   79P     43
126,1,1,0,0,1,0,-0.4825,-0.4825,1.4475,1.4475,1.,1.,19.3,0.,          81P     44
-30.825,0.,0.,-30.825,-0.4825,1.4475,0.,0.,0.;                        81P     45
126,1,1,0,0,1,0,-0.2,-0.2,0.,0.,1.,1.,19.3,2.,-30.825,19.3,0.,        83P     46
-30.825,-0.2,0.,0.,0.,0.;                                             83P     47
126,1,1,0,0,1,0,-1.93,-1.93,0.,0.,1.,1.,19.3,2.,-30.825,0.,2.,        85P     48
-30.825,-1.93,0.,0.,0.,0.;                                            85P     49
126,1,1,0,0,1,0,0.,0.,0.2,0.2,1.,1.,0.,0.,-30.825,0.,2.,-30.825,      87P     50
0.,0.2,0.,0.,0.;                                                      87P     51
126,1,1,0,0,1,0,-0.4825,-0.4825,1.4475,1.4475,1.,1.,0.,0.,            89P     52
-13.375,19.3,0.,-13.375,-0.4825,1.4475,0.,0.,0.;                      89P     53
126,1,1,0,0,1,0,-0.2,-0.2,0.,0.,1.,1.,0.,2.,-13.375,0.,0.,            91P     54
-13.375,-0.2,0.,0.,0.,0.;                                             91P     55
126,1,1,0,0,1,0,-1.93,-1.93,0.,0.,1.,1.,0.,2.,-13.375,19.3,2.,        93P     56
-13.375,-1.93,0.,0.,0.,0.;                                            93P     57
126,1,1,0,0,1,0,0.,0.,0.2,0.2,1.,1.,19.3,0.,-13.375,19.3,2.,          95P     58
-13.375,0.,0.2,0.,0.,0.;                                              95P     59
126,1,1,0,0,1,0,-0.217499999999999,-0.217499999999999,1.5275,         97P     60
1.5275,1.,1.,0.,2.,-30.825,0.,2.,-13.375,-0.217499999999999,          97P     61
1.5275,0.,0.,0.;                                                      97P     62
126,1,1,0,0,1,0,0.2325,0.2325,1.9775,1.9775,1.,1.,19.3,2.,            99P     63
-13.375,19.3,2.,-30.825,0.2325,1.9775,0.,0.,0.;                       99P     64
126,1,1,0,0,1,0,0.,0.,1.3375,1.3375,1.,1.,19.3,0.,0.,19.3,0.,        101P     65
-13.375,0.,1.3375,0.,0.,0.;                                          101P     66
126,1,1,0,0,1,0,0.,0.,1.93,1.93,1.,1.,0.,0.,0.,19.3,0.,0.,0.,        103P     67
1.93,0.,0.,0.;                                                       103P     68
126,1,1,0,0,1,0,2.1825,2.1825,3.52,3.52,1.,1.,0.,0.,-13.375,0.,      105P     69
0.,0.,2.1825,3.52,0.,0.,0.;                                          105P     70
126,8,2,0,1,0,0,-3.14159265358979,-3.14159265358979,                 107P     71
-3.14159265358979,-1.5707963267949,-1.5707963267949,0.,0.,           107P     72
1.5707963267949,1.5707963267949,3.14159265358979,                    107P     73
3.14159265358979,3.14159265358979,1.,0.70710678118655,1.,            107P     74
0.70710678118655,1.,0.70710678118655,1.,0.70710678118655,1.,         107P     75
10.9,0.,-10.375,10.9,0.,-11.625,9.65,0.,-11.625,8.4,0.,-11.625,      107P     76
8.4,0.,-10.375,8.4,0.,-9.125,9.65,0.,-9.125,10.9,0.,-9.125,10.9,     107P     77
0.,-10.375,-3.14159265358979,3.14159265358979,0.,0.,0.;              107P     78
126,1,1,0,0,1,0,0.,0.,0.437500000000001,0.437500000000001,1.,1.,     109P     79
0.,0.,-35.2,0.,0.,-30.825,0.,0.437500000000001,0.,0.,0.;             109P     80
126,4,2,0,0,0,0,0.,0.,0.,1.5707963267949,1.5707963267949,            111P     81
3.14159265358979,3.14159265358979,3.14159265358979,1.,               111P     82
0.707106781186547,1.,0.707106781186547,1.,19.3,0.,-35.2,19.3,0.,     111P     83
-44.85,9.65,0.,-44.85,1.14600359290118D-15,0.,-44.85,0.,0.,          111P     84
-35.2,0.,3.14159265358979,0.,0.,0.;                                  111P     85
126,1,1,0,0,1,0,3.0825,3.0825,3.52,3.52,1.,1.,19.3,0.,-30.825,       113P     86
19.3,0.,-35.2,3.0825,3.52,0.,0.,0.;                                  113P     87
126,8,2,0,1,0,0,-3.14159265358979,-3.14159265358979,                 115P     88
-3.14159265358979,-1.5707963267949,-1.5707963267949,0.,0.,           115P     89
1.5707963267949,1.5707963267949,3.14159265358979,                    115P     90
3.14159265358979,3.14159265358979,1.,0.707106781186545,1.,           115P     91
0.707106781186545,1.,0.707106781186545,1.,0.707106781186545,1.,      115P     92
10.9,0.,-33.825,10.9,0.,-35.075,9.65,0.,-35.075,8.4,0.,-35.075,      115P     93
8.4,0.,-33.825,8.4,0.,-32.575,9.65,0.,-32.575,10.9,0.,-32.575,       115P     94
10.9,0.,-33.825,-3.14159265358979,3.14159265358979,0.,0.,0.;         115P     95
126,1,1,0,0,1,0,0.,0.,0.4,0.4,1.,1.,0.,0.,0.,0.,4.,0.,0.,0.4,0.,     117P     96
0.,0.;                                                               117P     97
126,1,1,0,0,1,0,0.,0.,3.52,3.52,1.,1.,0.,4.,-35.2,0.,4.,0.,0.,       119P     98
3.52,0.,0.,0.;                                                       119P     99
126,1,1,0,0,1,0,0.,0.,0.4,0.4,1.,1.,0.,0.,-35.2,0.,4.,-35.2,0.,      121P    100
0.4,0.,0.,0.;                                                        121P    101
126,8,2,0,1,0,0,-3.14159265358979,-3.14159265358979,                 123P    102
-3.14159265358979,-1.5707963267949,-1.5707963267949,0.,0.,           123P    103
1.5707963267949,1.5707963267949,3.14159265358979,                    123P    104
3.14159265358979,3.14159265358979,1.,0.707106781186548,1.,           123P    105
0.707106781186549,1.,0.707106781186549,1.,0.707106781186548,1.,      123P    106
11.9,4.,-33.825,11.9,4.,-31.575,9.65,4.,-31.575,7.4,4.,-31.575,      123P    107
7.4,4.,-33.825,7.4,4.,-36.075,9.65,4.,-36.075,11.9,4.,-36.075,       123P    108
11.9,4.,-33.825,-3.14159265358979,3.14159265358979,0.,0.,0.;         123P    109
126,1,1,0,0,1,0,0.,0.,0.888888888888889,0.888888888888889,1.,1.,     125P    110
11.9,4.,-33.825,11.9,2.,-33.825,0.,0.888888888888889,0.,0.,0.;       125P    111
126,8,2,0,1,0,0,-3.14159265358979,-3.14159265358979,                 127P    112
-3.14159265358979,-1.5707963267949,-1.5707963267949,0.,0.,           127P    113
1.5707963267949,1.5707963267949,3.14159265358979,                    127P    114
3.14159265358979,3.14159265358979,1.,0.707106781186548,1.,           127P    115
0.707106781186549,1.,0.707106781186549,1.,0.707106781186548,1.,      127P    116
11.9,2.,-33.825,11.9,2.,-31.575,9.65,2.,-31.575,7.4,2.,-31.575,      127P    117
7.4,2.,-33.825,7.4,2.,-36.075,9.65,2.,-36.075,11.9,2.,-36.075,       127P    118
11.9,2.,-33.825,-3.14159265358979,3.14159265358979,0.,0.,0.;         127P    119
126,8,2,0,1,0,0,-3.14159265358979,-3.14159265358979,                 129P    120
-3.14159265358979,-1.5707963267949,-1.5707963267949,0.,0.,           129P    121
1.5707963267949,1.5707963267949,3.14159265358979,                    129P    122
3.14159265358979,3.14159265358979,1.,0.707106781186545,1.,           129P    123
0.707106781186545,1.,0.707106781186545,1.,0.707106781186545,1.,      129P    124
10.9,2.,-33.825,10.9,2.,-35.075,9.65,2.,-35.075,8.4,2.,-35.075,      129P    125
8.4,2.,-33.825,8.4,2.,-32.575,9.65,2.,-32.575,10.9,2.,-32.575,       129P    126
10.9,2.,-33.825,-3.14159265358979,3.14159265358979,0.,0.,0.;         129P    127
126,8,2,0,1,0,0,-3.14159265358979,-3.14159265358979,                 131P    128
-3.14159265358979,-1.5707963267949,-1.5707963267949,0.,0.,           131P    129
1.5707963267949,1.5707963267949,3.14159265358979,                    131P    130
3.14159265358979,3.14159265358979,1.,0.707106781186548,1.,           131P    131
0.707106781186547,1.,0.707106781186546,1.,0.707106781186546,1.,      131P    132
11.9,4.,-10.375,11.9,4.,-8.125,9.65,4.,-8.125,7.4,4.,-8.125,7.4,     131P    133
4.,-10.375,7.4,4.,-12.625,9.65,4.,-12.625,11.9,4.,-12.625,11.9,      131P    134
4.,-10.375,-3.14159265358979,3.14159265358979,0.,0.,0.;              131P    135
126,1,1,0,0,1,0,0.,0.,0.888888888888889,0.888888888888889,1.,1.,     133P    136
11.9,4.,-10.375,11.9,2.,-10.375,0.,0.888888888888889,0.,0.,0.;       133P    137
126,8,2,0,1,0,0,-3.14159265358979,-3.14159265358979,                 135P    138
-3.14159265358979,-1.5707963267949,-1.5707963267949,0.,0.,           135P    139
1.5707963267949,1.5707963267949,3.14159265358979,                    135P    140
3.14159265358979,3.14159265358979,1.,0.707106781186548,1.,           135P    141
0.707106781186547,1.,0.707106781186546,1.,0.707106781186546,1.,      135P    142
11.9,2.,-10.375,11.9,2.,-8.125,9.65,2.,-8.125,7.4,2.,-8.125,7.4,     135P    143
2.,-10.375,7.4,2.,-12.625,9.65,2.,-12.625,11.9,2.,-12.625,11.9,      135P    144
2.,-10.375,-3.14159265358979,3.14159265358979,0.,0.,0.;              135P    145
126,8,2,0,1,0,0,-3.14159265358979,-3.14159265358979,                 137P    146
-3.14159265358979,-1.5707963267949,-1.5707963267949,0.,0.,           137P    147
1.5707963267949,1.5707963267949,3.14159265358979,                    137P    148
3.14159265358979,3.14159265358979,1.,0.70710678118655,1.,            137P    149
0.70710678118655,1.,0.70710678118655,1.,0.70710678118655,1.,         137P    150
10.9,2.,-10.375,10.9,2.,-11.625,9.65,2.,-11.625,8.4,2.,-11.625,      137P    151
8.4,2.,-10.375,8.4,2.,-9.125,9.65,2.,-9.125,10.9,2.,-9.125,10.9,     137P    152
2.,-10.375,-3.14159265358979,3.14159265358979,0.,0.,0.;              137P    153
126,1,1,0,0,1,0,1.6,1.6,3.2,3.2,1.,1.,10.9,2.,-10.375,10.9,0.,       139P    154
-10.375,1.6,3.2,0.,0.,0.;                                            139P    155
126,1,1,0,0,1,0,1.6,1.6,3.2,3.2,1.,1.,10.9,2.,-33.825,10.9,0.,       141P    156
-33.825,1.6,3.2,0.,0.,0.;                                            141P    157
126,1,1,0,0,1,0,0.,0.,0.4,0.4,1.,1.,19.3,0.,-35.2,19.3,4.,-35.2,     143P    158
0.,0.4,0.,0.,0.;                                                     143P    159
126,1,1,0,0,1,0,0.,0.,3.52,3.52,1.,1.,19.3,4.,0.,19.3,4.,-35.2,      145P    160
0.,3.52,0.,0.,0.;                                                    145P    161
126,1,1,0,0,1,0,0.,0.,0.4,0.4,1.,1.,19.3,0.,0.,19.3,4.,0.,0.,        147P    162
0.4,0.,0.,0.;                                                        147P    163
126,1,1,0,0,1,0,0.,0.,1.93,1.93,1.,1.,0.,4.,0.,19.3,4.,0.,0.,        149P    164
1.93,0.,0.,0.;                                                       149P    165
126,4,2,0,0,0,0,0.,0.,0.,1.5707963267949,1.5707963267949,            151P    166
3.14159265358979,3.14159265358979,3.14159265358979,1.,               151P    167
0.707106781186547,1.,0.707106781186547,1.,19.3,4.,-35.2,19.3,4.,     151P    168
-44.85,9.65,4.,-44.85,1.14600359290118D-15,4.,-44.85,0.,4.,          151P    169
-35.2,0.,3.14159265358979,0.,0.,0.;                                  151P    170
128,1,1,1,1,0,0,1,0,0,-0.001,-0.001,1.931,1.931,-0.001,-0.001,       153P    171
0.201,0.201,1.,1.,1.,1.,-0.0099999999999989,-0.01,-30.825,19.31,     153P    172
-0.01,-30.825,-0.0099999999999989,2.01,-30.825,19.31,2.01,           153P    173
-30.825,-0.001,1.931,-0.001,0.201;                                   153P    174
128,1,1,1,1,0,0,1,0,0,-0.001,-0.001,1.931,1.931,-0.001,-0.001,       155P    175
0.201,0.201,1.,1.,1.,1.,19.31,-0.01,-13.375,-0.01,-0.01,-13.375,     155P    176
19.31,2.01,-13.375,-0.01,2.01,-13.375,-0.001,1.931,-0.001,0.201;     155P    177
128,1,1,1,1,0,0,1,0,0,-0.8735,-0.8735,0.8735,0.8735,-0.966,          157P    178
-0.966,0.966,0.966,1.,1.,1.,1.,-0.01,2.,-13.365,-0.01,2.,            157P    179
-30.835,19.31,2.,-13.365,19.31,2.,-30.835,-0.8735,0.8735,-0.966,     157P    180
0.966;                                                               157P    181
128,1,1,1,1,0,0,1,0,0,-0.966,-0.966,0.966,0.966,-2.2435,-2.2435,     159P    182
-0.904,-0.904,1.,1.,1.,1.,19.31,0.,0.0099999999999989,-0.01,0.,      159P    183
0.0099999999999989,19.31,0.,-13.385,-0.01,0.,-13.385,-0.966,         159P    184
0.966,-2.2435,-0.904;                                                159P    185
128,1,1,1,1,0,0,1,0,0,-0.966,-0.966,0.966,0.966,                     161P    186
0.838999999999999,0.838999999999999,2.2435,2.2435,1.,1.,1.,1.,       161P    187
19.31,0.,-30.815,-0.01,0.,-30.815,19.31,0.,-44.86,-0.01,0.,          161P    188
-44.86,-0.966,0.966,0.838999999999999,2.2435;                        161P    189
128,1,1,1,1,0,0,1,0,0,-0.001,-0.001,3.521,3.521,-0.001,-0.001,       163P    190
0.401,0.401,1.,1.,1.,1.,0.,-0.01,-35.21,0.,-0.01,                    163P    191
0.0099999999999989,0.,4.01,-35.21,0.,4.01,0.0099999999999989,        163P    192
-0.001,3.521,-0.001,0.401;                                           163P    193
128,1,8,1,2,0,1,0,0,1,0.,0.,0.888888888888889,0.888888888888889,     165P    194
-3.14159265358979,-3.14159265358979,-3.14159265358979,               165P    195
-1.5707963267949,-1.5707963267949,0.,0.,1.5707963267949,             165P    196
1.5707963267949,3.14159265358979,3.14159265358979,                   165P    197
3.14159265358979,1.,1.,0.707106781186548,0.707106781186548,1.,       165P    198
1.,0.707106781186548,0.707106781186548,1.,1.,0.707106781186548,      165P    199
0.707106781186548,1.,1.,0.707106781186548,0.707106781186548,1.,      165P    200
1.,11.9,4.,-33.825,11.9,2.,-33.825,11.9,4.,-31.575,11.9,2.,          165P    201
-31.575,9.65,4.,-31.575,9.65,2.,-31.575,7.4,4.,-31.575,7.4,2.,       165P    202
-31.575,7.4,4.,-33.825,7.4,2.,-33.825,7.4,4.,-36.075,7.4,2.,         165P    203
-36.075,9.65,4.,-36.075,9.65,2.,-36.075,11.9,4.,-36.075,11.9,2.,     165P    204
-36.075,11.9,4.,-33.825,11.9,2.,-33.825,0.,0.888888888888889,        165P    205
-3.14159265358979,3.14159265358979;                                  165P    206
128,1,1,1,1,0,0,1,0,0,-0.226,-0.226,0.226,0.226,-0.226,-0.226,       167P    207
0.226,0.226,1.,1.,1.,1.,11.91,2.,-36.085,7.39,2.,-36.085,11.91,      167P    208
2.,-31.565,7.39,2.,-31.565,-0.226,0.226,-0.226,0.226;                167P    209
128,1,8,1,2,0,1,0,0,1,0.,0.,0.888888888888889,0.888888888888889,     169P    210
-3.14159265358979,-3.14159265358979,-3.14159265358979,               169P    211
-1.5707963267949,-1.5707963267949,0.,0.,1.5707963267949,             169P    212
1.5707963267949,3.14159265358979,3.14159265358979,                   169P    213
3.14159265358979,1.,1.,0.707106781186548,0.707106781186548,1.,       169P    214
1.,0.707106781186548,0.707106781186548,1.,1.,0.707106781186548,      169P    215
0.707106781186548,1.,1.,0.707106781186548,0.707106781186548,1.,      169P    216
1.,11.9,4.,-10.375,11.9,2.,-10.375,11.9,4.,-8.125,11.9,2.,           169P    217
-8.125,9.65,4.,-8.125,9.65,2.,-8.125,7.4,4.,-8.125,7.4,2.,           169P    218
-8.125,7.4,4.,-10.375,7.4,2.,-10.375,7.4,4.,-12.625,7.4,2.,          169P    219
-12.625,9.65,4.,-12.625,9.65,2.,-12.625,11.9,4.,-12.625,11.9,2.,     169P    220
-12.625,11.9,4.,-10.375,11.9,2.,-10.375,0.,0.888888888888889,        169P    221
-3.14159265358979,3.14159265358979;                                  169P    222
128,1,1,1,1,0,0,1,0,0,-0.226,-0.226,0.226,0.226,-0.226,-0.226,       171P    223
0.226,0.226,1.,1.,1.,1.,11.91,2.,-12.635,7.39,2.,-12.635,11.91,      171P    224
2.,-8.115,7.39,2.,-8.115,-0.226,0.226,-0.226,0.226;                  171P    225
128,1,8,1,2,0,1,0,0,1,1.6,1.6,3.2,3.2,-3.14159265358979,             173P    226
-3.14159265358979,-3.14159265358979,-1.5707963267949,                173P    227
-1.5707963267949,0.,0.,1.5707963267949,1.5707963267949,              173P    228
3.14159265358979,3.14159265358979,3.14159265358979,1.,1.,            173P    229
0.707106781186548,0.707106781186548,1.,1.,0.707106781186548,         173P    230
0.707106781186548,1.,1.,0.707106781186548,0.707106781186548,1.,      173P    231
1.,0.707106781186548,0.707106781186548,1.,1.,10.9,2.,-10.375,        173P    232
10.9,0.,-10.375,10.9,2.,-9.125,10.9,0.,-9.125,9.65,2.,-9.125,        173P    233
9.65,0.,-9.125,8.4,2.,-9.125,8.4,0.,-9.125,8.4,2.,-10.375,8.4,       173P    234
0.,-10.375,8.4,2.,-11.625,8.4,0.,-11.625,9.65,2.,-11.625,9.65,       173P    235
0.,-11.625,10.9,2.,-11.625,10.9,0.,-11.625,10.9,2.,-10.375,10.9,     173P    236
0.,-10.375,1.6,3.2,-3.14159265358979,3.14159265358979;               173P    237
128,1,8,1,2,0,1,0,0,1,1.6,1.6,3.2,3.2,-3.14159265358979,             175P    238
-3.14159265358979,-3.14159265358979,-1.5707963267949,                175P    239
-1.5707963267949,0.,0.,1.5707963267949,1.5707963267949,              175P    240
3.14159265358979,3.14159265358979,3.14159265358979,1.,1.,            175P    241
0.707106781186548,0.707106781186548,1.,1.,0.707106781186548,         175P    242
0.707106781186548,1.,1.,0.707106781186548,0.707106781186548,1.,      175P    243
1.,0.707106781186548,0.707106781186548,1.,1.,10.9,2.,-33.825,        175P    244
10.9,0.,-33.825,10.9,2.,-32.575,10.9,0.,-32.575,9.65,2.,-32.575,     175P    245
9.65,0.,-32.575,8.4,2.,-32.575,8.4,0.,-32.575,8.4,2.,-33.825,        175P    246
8.4,0.,-33.825,8.4,2.,-35.075,8.4,0.,-35.075,9.65,2.,-35.075,        175P    247
9.65,0.,-35.075,10.9,2.,-35.075,10.9,0.,-35.075,10.9,2.,-33.825,     175P    248
10.9,0.,-33.825,1.6,3.2,-3.14159265358979,3.14159265358979;          175P    249
128,1,1,1,1,0,0,1,0,0,-0.001,-0.001,3.521,3.521,-0.001,-0.001,       177P    250
0.401,0.401,1.,1.,1.,1.,19.3,-0.01,0.01,19.3,-0.01,-35.21,19.3,      177P    251
4.01,0.01,19.3,4.01,-35.21,-0.001,3.521,-0.001,0.401;                177P    252
128,1,1,1,1,0,0,1,0,0,-0.001,-0.001,1.931,1.931,-0.001,-0.001,       179P    253
0.401,0.401,1.,1.,1.,1.,-0.01,-0.01,0.,19.31,-0.01,0.,-0.01,         179P    254
4.01,0.,19.31,4.01,0.,-0.001,1.931,-0.001,0.401;                     179P    255
128,1,4,1,2,0,0,0,0,0,0.,0.,0.414507772020725,0.414507772020725,     181P    256
0.,0.,0.,1.5707963267949,1.5707963267949,3.14159265358979,           181P    257
3.14159265358979,3.14159265358979,1.,1.,0.707106781186548,           181P    258
0.707106781186548,1.,1.,0.707106781186548,0.707106781186548,1.,      181P    259
1.,19.3,4.,-35.2,19.3,0.,-35.2,19.3,4.,-44.85,19.3,0.,-44.85,        181P    260
9.65,4.,-44.85,9.65,0.,-44.85,2.22044604925031D-15,4.,-44.85,        181P    261
2.22044604925031D-15,0.,-44.85,0.,4.,-35.2,0.,0.,-35.2,0.,           181P    262
0.414507772020725,0.,3.14159265358979;                               181P    263
128,1,1,1,1,0,0,1,0,0,-0.966,-0.966,0.966,0.966,-2.2435,-2.2435,     183P    264
2.2435,2.2435,1.,1.,1.,1.,-0.01,4.,0.0099999999999989,19.31,4.,      183P    265
0.0099999999999989,-0.01,4.,-44.86,19.31,4.,-44.86,-0.966,0.966,     183P    266
-2.2435,2.2435;                                                      183P    267
502,24,19.3,0.,-30.825,0.,0.,-30.825,19.3,2.,-30.825,0.,2.,          185P    268
-30.825,0.,0.,-13.375,19.3,0.,-13.375,0.,2.,-13.375,19.3,2.,         185P    269
-13.375,19.3,0.,0.,0.,0.,0.,10.9,0.,-10.375,0.,0.,-35.2,19.3,0.,     185P    270
-35.2,10.9,0.,-33.825,0.,4.,0.,0.,4.,-35.2,11.9,4.,-33.825,11.9,     185P    271
2.,-33.825,10.9,2.,-33.825,11.9,4.,-10.375,11.9,2.,-10.375,10.9,     185P    272
2.,-10.375,19.3,4.,-35.2,19.3,4.,0.;                                 185P    273
504,36,81,185,1,185,2,83,185,3,185,1,85,185,3,185,4,87,185,2,        187P    274
185,4,89,185,5,185,6,91,185,7,185,5,93,185,7,185,8,95,185,6,185,     187P    275
8,97,185,4,185,7,99,185,8,185,3,101,185,9,185,6,103,185,10,185,      187P    276
9,105,185,5,185,10,107,185,11,185,11,109,185,12,185,2,111,185,       187P    277
13,185,12,113,185,1,185,13,115,185,14,185,14,117,185,10,185,15,      187P    278
119,185,16,185,15,121,185,12,185,16,123,185,17,185,17,125,185,       187P    279
17,185,18,127,185,18,185,18,129,185,19,185,19,131,185,20,185,20,     187P    280
133,185,20,185,21,135,185,21,185,21,137,185,22,185,22,139,185,       187P    281
22,185,11,141,185,19,185,14,143,185,13,185,23,145,185,24,185,23,     187P    282
147,185,9,185,24,149,185,15,185,24,151,185,23,185,16;                187P    283
406,1,5HBody1;                                                       189P    284
314,62.7450980392157,62.7450980392157,62.7450980392157,13HSteel      191P    285
- Satin;                                                             191P    286
S      1G      3D    192P    286                                        T      1
